<svg xmlns="http://www.w3.org/2000/svg" width="36.33" height="46.672" viewBox="0 0 36.33 46.672">
  <path id="Path_6148" data-name="Path 6148" d="M31.514,50.375V48.1a3.448,3.448,0,0,1,3.448-3.447h4.621A3.447,3.447,0,0,0,43.03,41.21V40.185a3.447,3.447,0,0,0-3.447-3.447l-14.613,0a3.448,3.448,0,0,1-3.447-3.448h0a3.447,3.447,0,0,1,3.447-3.447l21.462-.027a3.448,3.448,0,0,0,3.447-3.448h0a3.447,3.447,0,0,0-3.447-3.447L20,22.94a3.447,3.447,0,0,1-3.447-3.447h0A3.447,3.447,0,0,1,20,16.046H42.33A3.448,3.448,0,0,0,45.778,12.6h0A3.448,3.448,0,0,0,42.33,9.151H19A3.448,3.448,0,0,1,15.549,5.7" transform="translate(-14.549 -4.703)" fill="none" stroke="#d6820f" stroke-linecap="round" stroke-linejoin="round" stroke-width="2"/>
</svg>
