<svg xmlns="http://www.w3.org/2000/svg" xmlns:xlink="http://www.w3.org/1999/xlink" width="375" height="104.752" viewBox="0 0 375 104.752">
  <defs>
    <clipPath id="clip-path">
      <rect id="Rectangle_857" data-name="Rectangle 857" width="375" height="40" transform="translate(1168.951 2084.078)" fill="#f3d9b6"/>
    </clipPath>
  </defs>
  <g id="Mobile-nutritionist-accent" transform="translate(0 -1349)">
    <g id="Mask_Group_24" data-name="Mask Group 24" transform="translate(-1168.951 -735.078)" clip-path="url(#clip-path)">
      <g id="Group_1247" data-name="Group 1247" transform="translate(895.889 2076.438)">
        <path id="Path_7210" data-name="Path 7210" d="M1640.765,264.7c-.63,3.715-1.437,7.409-2.22,11.1a192.022,192.022,0,0,1-6.063,22.844A85.986,85.986,0,0,1,1623.7,317.3a59.383,59.383,0,0,1-12.13,13.811,64.917,64.917,0,0,1-23.753,12.136,137.481,137.481,0,0,1-21.249,4.094c-7.174.892-14.395,1.476-21.627,1.989-9.867.7-19.75,1.27-29.6,2.13a254.987,254.987,0,0,0-33.263,4.692,98.859,98.859,0,0,0-22.562,7.616,49.588,49.588,0,0,0-19.893,17.032,77.375,77.375,0,0,0-8.18,17.007c-2.641,7.436-4.488,15.009-6.386,22.575-2.117,8.439-4.055,16.909-6.86,25.234a81.641,81.641,0,0,1-9.487,20.153,46.011,46.011,0,0,1-12.136,12.316c-6.464,4.444-14.074,6.939-22.5,8.048a113.586,113.586,0,0,1-15.979.713,190.432,190.432,0,0,1-21.519-1.671c-12.692-1.569-25.166-3.921-37.58-6.475-20.718-4.264-41.172-9.244-61.734-13.934-14.513-3.31-29.067-6.5-43.8-9.165-10.507-1.9-21.08-3.524-31.8-4.5q-7.211-.656-14.48-.777a114.271,114.271,0,0,0-18.811,1.1,79.9,79.9,0,0,0-33.49,12.712,102.906,102.906,0,0,0-18.455,16.328c-4.411,4.825-8.38,9.873-12.4,14.9-4.576,5.719-9.033,11.5-13.961,17.041a105.971,105.971,0,0,1-13.409,12.843,76.154,76.154,0,0,1-27.618,13.526,137.6,137.6,0,0,1-23.485,4.1c-5.4.5-10.825.732-16.257.87v1.071c5.3-.128,10.582-.377,15.846-.863,12.058-1.112,23.739-3.27,34.606-7.665a73.26,73.26,0,0,0,20.508-12.522c7.312-6.293,13.294-13.335,19.034-20.515,4.717-5.9,9.323-11.862,14.235-17.668a127.8,127.8,0,0,1,13.723-14.154,77.954,77.954,0,0,1,33.54-17.485,101.427,101.427,0,0,1,23.512-2.6,217.851,217.851,0,0,1,29.017,2.107c11.991,1.582,23.8,3.789,35.561,6.19,19.005,3.882,37.78,8.388,56.623,12.712,15.163,3.48,30.336,6.931,45.71,9.811,10.4,1.947,20.85,3.676,31.467,4.728,5.346.53,10.706.923,16.105,1a106.921,106.921,0,0,0,16.5-.906q17.464-2.466,28.458-13.358a54.451,54.451,0,0,0,10.224-14.354c4.09-8.062,6.685-16.455,8.887-24.928,2.062-7.939,4-15.9,6.073-23.834a125.766,125.766,0,0,1,6.523-19.348,58.3,58.3,0,0,1,8.433-14.013c4.87-5.829,11.3-10.335,19-13.778a112.954,112.954,0,0,1,25.321-7.406c7.248-1.364,14.6-2.265,21.986-3,8.291-.827,16.617-1.394,24.944-1.928,8.421-.54,16.833-1.127,25.213-1.971a179.087,179.087,0,0,0,23.611-3.71,71.693,71.693,0,0,0,24.46-10.437,58.389,58.389,0,0,0,11.87-10.888,77.2,77.2,0,0,0,12.781-23.225,174.687,174.687,0,0,0,6.6-24.065c.846-4.014,1.646-8.034,2.467-12.051Z" transform="translate(-969.3 -264.695)" fill="#f2e0c5"/>
        <path id="Path_7211" data-name="Path 7211" d="M968.131,585.944a4.52,4.52,0,0,1,1.451-.581,82.941,82.941,0,0,0,22.294-10.522A70.434,70.434,0,0,0,1003.8,564.4a121.215,121.215,0,0,0,10.957-13.95c4.14-6.041,7.995-12.2,12-18.29a165.432,165.432,0,0,1,13.027-17.72,81.89,81.89,0,0,1,14.84-13.553,73.571,73.571,0,0,1,24.079-10.994,108.839,108.839,0,0,1,20.787-3.163c6.526-.4,13.051-.386,19.574-.141,8.121.306,16.2.97,24.265,1.795,20.575,2.107,40.886,5.358,61.2,8.579,12.755,2.022,25.5,4.091,38.288,5.974,9.335,1.374,18.692,2.646,28.1,3.682,8.5.937,17.028,1.681,25.607,2.053,5.706.247,11.415.33,17.114.114A100.866,100.866,0,0,0,1334,506.143c10.833-2.668,19.131-7.852,25.169-15.32a51.879,51.879,0,0,0,7.989-14.16,105.2,105.2,0,0,0,5.248-20.009c1.45-8.31,2.4-16.662,3.589-24.995a159.977,159.977,0,0,1,4.34-22.21,61.749,61.749,0,0,1,6.286-14.918,44.357,44.357,0,0,1,13.422-13.785c7-4.735,15.066-8.019,23.63-10.628a218.98,218.98,0,0,1,26.835-6.023c10.754-1.843,21.616-3.235,32.455-4.722,8.818-1.21,17.6-2.542,26.272-4.306a117.094,117.094,0,0,0,22.515-6.617,59.654,59.654,0,0,0,20.707-14.231,60.429,60.429,0,0,0,12.24-20.341,109.487,109.487,0,0,0,5.313-21.089c1.086-6.657,1.7-13.347,2.37-20.034.152-1.529.281-3.062.338-4.594a18.378,18.378,0,0,1,.831-3.465h-1.37c-1.14,3.2-.954,6.51-1.293,9.772-.573,5.513-1.107,11.026-1.922,16.521a121.933,121.933,0,0,1-3.642,16.99,66.3,66.3,0,0,1-10.2,21.164c-6.756,9.065-16.185,15.819-28.464,20.137a154.987,154.987,0,0,1-24.105,6.01c-11.4,2.045-22.95,3.484-34.457,5.1-8.678,1.216-17.331,2.52-25.89,4.183a156.064,156.064,0,0,0-30.914,8.872,66.259,66.259,0,0,0-15.18,8.725,44.153,44.153,0,0,0-12.258,14.7,73.537,73.537,0,0,0-6,16.891c-1.647,6.953-2.649,13.974-3.611,21-1.088,7.947-2.027,15.909-3.515,23.82a96.966,96.966,0,0,1-5.251,18.808,50.17,50.17,0,0,1-8.073,13.661c-6.4,7.589-15.254,12.461-26.478,14.734a106.055,106.055,0,0,1-18.826,2.017c-6.258.133-12.517.109-18.76-.27q-11.474-.7-22.867-1.992c-17.68-2.009-35.193-4.724-52.692-7.505-13.694-2.176-27.372-4.417-41.11-6.424-10.549-1.541-21.122-2.982-31.762-4.1-7.74-.811-15.5-1.478-23.3-1.829-6.389-.287-12.774-.419-19.167-.151-10.292.431-20.317,1.828-29.821,5.08a74.976,74.976,0,0,0-19.318,9.824,86.99,86.99,0,0,0-17.445,16.837c-4.517,5.63-8.38,11.543-12.243,17.458-5.1,7.819-9.94,15.751-15.88,23.223A84.893,84.893,0,0,1,995.4,570.76a74.528,74.528,0,0,1-22.626,12.406c-2.87,1.027-5.858,1.811-8.755,2.778Z" transform="translate(-897.696 -264.695)" fill="#f2e0c5"/>
        <path id="Path_7212" data-name="Path 7212" d="M1642.55,264.7a2.338,2.338,0,0,1-.143,1.165,261.507,261.507,0,0,1-10.03,27.591,93.3,93.3,0,0,1-11.85,20.089,61.766,61.766,0,0,1-15.133,13.869,70.7,70.7,0,0,1-25.874,9.859,150.219,150.219,0,0,1-17.33,1.993c-8.976.572-17.97.643-26.968.643-6.577,0-13.155-.029-19.731.033-9.133.085-18.264.271-27.355,1.03a148.1,148.1,0,0,0-26.772,4.329,67.609,67.609,0,0,0-21.657,9.819,49.24,49.24,0,0,0-10.338,10.073,83.31,83.31,0,0,0-9.433,15.789c-3.288,6.972-5.889,14.112-8.532,21.243-3.253,8.774-6.3,17.6-10.328,26.187a88.828,88.828,0,0,1-9.335,15.946,52.09,52.09,0,0,1-10.953,10.914,49.519,49.519,0,0,1-24.907,9.06,100.44,100.44,0,0,1-18.719-.127A235.646,235.646,0,0,1,1306,458.932c-14.533-3.29-28.747-7.315-42.857-11.561-13.894-4.182-27.725-8.49-41.6-12.717-15.235-4.642-30.5-9.216-46.082-13.118-10.4-2.6-20.891-4.949-31.622-6.591a163.971,163.971,0,0,0-19.823-1.967c-16.321-.5-31.424,2.5-44.978,9.806a102.829,102.829,0,0,0-19.07,13.453c-5.75,5.043-10.931,10.434-16.135,15.817-5.01,5.182-9.886,10.446-15.165,15.467a112.479,112.479,0,0,1-18.033,14.316c-9.346,5.823-20.032,9.317-31.681,11.133-1.611.251-3.237.447-4.855.668v1.071c4.085-.6,8.171-1.174,12.176-2.072a80.793,80.793,0,0,0,27.452-11.473,121.728,121.728,0,0,0,16.857-13.88c3.8-3.659,7.346-7.471,11-11.22,5.282-5.424,10.389-10.956,16.038-16.157a112.655,112.655,0,0,1,18.753-14.359,81.706,81.706,0,0,1,35.35-11.206,124.5,124.5,0,0,1,25.927.789A301.861,301.861,0,0,1,1172.983,422c13.552,3.347,26.882,7.179,40.12,11.208,16.811,5.116,33.576,10.327,50.416,15.386,15.095,4.534,30.32,8.788,45.914,12.182a223.562,223.562,0,0,0,27.885,4.478,91.372,91.372,0,0,0,21.832-.291,50.06,50.06,0,0,0,23.217-9.474,55.006,55.006,0,0,0,12-12.7,105.532,105.532,0,0,0,10.34-19.454c2.372-5.629,4.434-11.331,6.548-17.02,2.573-6.923,5.011-13.878,7.978-20.709a102.909,102.909,0,0,1,8.2-15.642,53.635,53.635,0,0,1,11.023-12.464,54.223,54.223,0,0,1,13.316-7.81,94.41,94.41,0,0,1,20.719-5.753,187.593,187.593,0,0,1,19.646-2.2c6.924-.442,13.859-.574,20.8-.693,11.418-.2,22.838.017,34.255-.18a222.254,222.254,0,0,0,29.437-2.059,75.173,75.173,0,0,0,27.96-9.6,62.715,62.715,0,0,0,14.7-12.329,85.354,85.354,0,0,0,12.869-19.929,192.835,192.835,0,0,0,9.063-23.239q1.485-4.51,2.984-9.016Z" transform="translate(-974.1 -264.695)" fill="#f2e0c5"/>
        <path id="Path_7213" data-name="Path 7213" d="M1645.3,264.7c-2.806,6.3-5.627,12.6-8.855,18.784a123.258,123.258,0,0,1-12.975,20.394,73.575,73.575,0,0,1-12.173,12.091c-9.078,7.078-19.9,11.621-32.523,13.513a135.306,135.306,0,0,1-20.315,1.246c-7.357-.012-14.692-.374-22.019-.848q-12.352-.8-24.705-1.589c-7.6-.49-15.209-.829-22.84-.887a177.722,177.722,0,0,0-26.728,1.549,83.583,83.583,0,0,0-21.265,5.759,54.014,54.014,0,0,0-18.189,12.783,91.576,91.576,0,0,0-12.246,16.934c-4.521,7.73-8.274,15.706-12.189,23.628a249.618,249.618,0,0,1-12.285,22.9,88.541,88.541,0,0,1-10.314,13.617,53.233,53.233,0,0,1-14.267,10.991,52.08,52.08,0,0,1-23.615,5.706,108.451,108.451,0,0,1-22.1-2.121,268.882,268.882,0,0,1-31.156-8.139c-15.327-4.868-30.225-10.467-45.045-16.2-13.426-5.19-26.81-10.447-40.255-15.607-13.734-5.271-27.589-10.344-41.787-14.815a281.1,281.1,0,0,0-30.64-8.007,124.443,124.443,0,0,0-25.6-2.6,85.991,85.991,0,0,0-37.528,8.908,112.939,112.939,0,0,0-17.354,10.767c-6.315,4.709-12.166,9.762-17.986,14.841-6.823,5.953-13.535,11.99-20.953,17.51a101.154,101.154,0,0,1-18.865,11.313,67.528,67.528,0,0,1-8.664,3.192v1.071a49.347,49.347,0,0,0,7.5-2.6,91.887,91.887,0,0,0,17.453-9.753,230.126,230.126,0,0,0,18.27-14.624c7.73-6.708,15.238-13.58,23.6-19.825a104.524,104.524,0,0,1,24.184-13.914,83.947,83.947,0,0,1,26.9-5.741A116.1,116.1,0,0,1,1124.39,377a255.361,255.361,0,0,1,27.921,6.931c11.047,3.319,21.841,7.1,32.547,11.033,18.972,6.974,37.61,14.479,56.421,21.708,11.845,4.551,23.742,9.019,35.89,13.062a320.925,320.925,0,0,0,32.417,9.236,144.785,144.785,0,0,0,20.813,3.175,63.354,63.354,0,0,0,23.173-2.228,50.166,50.166,0,0,0,14.716-7.308,65.506,65.506,0,0,0,14.679-14.988,142.925,142.925,0,0,0,12.119-20.372c4.09-8.1,8.036-16.245,12.154-24.336a125.888,125.888,0,0,1,11.074-18.273,61.79,61.79,0,0,1,11.864-12.393,56.7,56.7,0,0,1,16.421-8.58,99.319,99.319,0,0,1,22.613-4.526,220.483,220.483,0,0,1,27.089-.585c7.391.2,14.766.658,22.134,1.178q11.322.8,22.655,1.5c8.2.5,16.422.7,24.641.442a91.07,91.07,0,0,0,27.294-4.589,67.541,67.541,0,0,0,15.948-8.029,75.656,75.656,0,0,0,18.369-18.265A147.077,147.077,0,0,0,1640.97,277.2q2.986-6.215,5.7-12.507Z" transform="translate(-979.86 -264.695)" fill="#f2e0c5"/>
        <path id="Path_7214" data-name="Path 7214" d="M1648.179,264.7a12.734,12.734,0,0,1-1.388,2.557,205.986,205.986,0,0,1-15.225,23.117A95.419,95.419,0,0,1,1616.528,306a69.917,69.917,0,0,1-36.469,15.357,105.274,105.274,0,0,1-15.84.644c-11.9-.346-23.608-1.87-35.309-3.448-9.719-1.31-19.41-2.747-29.176-3.84a235.989,235.989,0,0,0-32.752-1.8A95.69,95.69,0,0,0,1439.6,317.2a57.283,57.283,0,0,0-20.475,11.74A101.091,101.091,0,0,0,1404,346.359c-5.435,7.649-10.175,15.572-15.094,23.423-3.958,6.316-7.964,12.609-12.54,18.669a88.227,88.227,0,0,1-16.335,17.117,53.255,53.255,0,0,1-14.573,8.069,54.413,54.413,0,0,1-21.742,3.016c-9.868-.544-19.18-2.776-28.328-5.537a309.655,309.655,0,0,1-30.819-11.385c-16.408-6.916-32.3-14.521-48.189-22.123-14.412-6.893-28.785-13.837-43.445-20.407-11.334-5.08-22.827-9.926-34.735-14.142a199.982,199.982,0,0,0-26.726-7.65,102.233,102.233,0,0,0-24.821-2.126,86.458,86.458,0,0,0-26.75,5.415,116.812,116.812,0,0,0-20.636,10.279c-5.306,3.278-10.318,6.818-15.285,10.4-6.307,4.55-12.474,9.218-18.871,13.694a159.677,159.677,0,0,1-18.532,11.343v1.071a40.013,40.013,0,0,0,5.5-2.8,162.461,162.461,0,0,0,15.949-10.28c6-4.336,11.915-8.747,17.92-13.08a185.27,185.27,0,0,1,22.034-14.085,98.261,98.261,0,0,1,19.927-8.008,85.813,85.813,0,0,1,23.13-2.986,108.96,108.96,0,0,1,25.567,3.375,246.262,246.262,0,0,1,30.84,10.012c12.517,4.873,24.653,10.285,36.675,15.859,14.808,6.866,29.393,14.018,44.123,20.986,17.155,8.115,34.393,16.119,52.538,22.84a193.414,193.414,0,0,0,29.587,8.673,86.029,86.029,0,0,0,16.513,1.8,53.587,53.587,0,0,0,27.137-6.9,67.011,67.011,0,0,0,15.691-12.615A125.044,125.044,0,0,0,1382,382.707c5.717-8.379,10.818-17,16.234-25.5a176.62,176.62,0,0,1,12.868-18.162,80.062,80.062,0,0,1,11.707-11.7,58.382,58.382,0,0,1,23.918-11.018,98.234,98.234,0,0,1,16.437-2.212,184.8,184.8,0,0,1,23.527.388c11.15.825,22.169,2.33,33.191,3.832,9,1.226,17.976,2.531,27.036,3.456a193.363,193.363,0,0,0,22.93,1.292,83.78,83.78,0,0,0,24.963-3.934,70.515,70.515,0,0,0,15.867-7.538,80.288,80.288,0,0,0,15.668-13.252,128.368,128.368,0,0,0,12.694-16.252c3.535-5.283,6.809-10.665,9.925-16.106a3.589,3.589,0,0,0,.587-1.307Z" transform="translate(-986.58 -264.695)" fill="#f2e0c5"/>
        <path id="Path_7215" data-name="Path 7215" d="M960.11,585.944a60.231,60.231,0,0,1,2.89-5.779c3.293-6.311,6.41-12.68,10.022-18.888a94.911,94.911,0,0,1,14.487-19.489,68.568,68.568,0,0,1,22.764-15.162,92.631,92.631,0,0,1,21.143-5.762,172.116,172.116,0,0,1,17.922-1.782c6.474-.333,12.956-.48,19.44-.368,5.842.1,11.682.251,17.517.543,5.513.276,11.023.581,16.525.961,5.912.409,11.818.872,17.721,1.356,7.174.588,14.343,1.214,21.512,1.839,6.716.585,13.426,1.21,20.143,1.783,7.761.662,15.519,1.34,23.3,1.887,6.321.444,12.645.857,18.978,1.175,5.877.294,11.76.547,17.656.524,3.927-.016,7.856.036,11.781-.048a161.683,161.683,0,0,0,28.35-2.755,65.815,65.815,0,0,0,15.189-4.8,40.97,40.97,0,0,0,16.26-13.325,49.306,49.306,0,0,0,7.63-17.56,96.82,96.82,0,0,0,2.215-14.122c.529-5.948.723-11.9.83-17.861.11-6.137.243-12.275.545-18.407a107.817,107.817,0,0,1,2.712-21.067,48.567,48.567,0,0,1,5.138-13.069,41.77,41.77,0,0,1,8.543-10.162c6.041-5.3,13.387-9.24,21.374-12.507A196.413,196.413,0,0,1,1370,374.555c11.545-2.85,23.287-5.151,34.963-7.638,8.373-1.784,16.719-3.636,24.878-5.968a125.183,125.183,0,0,0,17.422-6.225q15.616-7.1,24.071-19.576a59.831,59.831,0,0,0,8.654-20.562,104.919,104.919,0,0,0,2.249-15.84c.542-7.274.528-14.552.42-21.832q-.042-2.836-.195-5.671a12.692,12.692,0,0,1,.679-4.979c.182-.515.295-1.045.44-1.569h-1.37a.573.573,0,0,1-.02.106c-1.515,3.875-1.024,7.848-.912,11.8.142,5.031.217,10.062-.025,15.092-.12,2.5-.161,4.992-.355,7.488-.679,8.754-2.09,17.407-5.534,25.795a50.734,50.734,0,0,1-13.459,19.084,62.717,62.717,0,0,1-17.7,10.831,143.346,143.346,0,0,1-17.877,5.952c-9.857,2.644-19.924,4.724-29.984,6.826-11.206,2.342-22.418,4.671-33.391,7.635a159.773,159.773,0,0,0-26.418,9.332,74.388,74.388,0,0,0-13.076,7.744,43.16,43.16,0,0,0-15.488,20.842,75.591,75.591,0,0,0-3.35,14.955c-.67,5.257-.98,10.529-1.147,15.811-.2,6.35-.318,12.7-.5,19.051a143.986,143.986,0,0,1-2.2,23.79,55.066,55.066,0,0,1-5.779,16.694,38.969,38.969,0,0,1-9.342,11.263,47.8,47.8,0,0,1-17.911,8.817,111.854,111.854,0,0,1-18.272,3.227c-6.667.679-13.368.931-20.085.948-6.668.017-13.337,0-19.995-.315q-10.321-.488-20.625-1.181c-6.915-.473-13.816-1.037-20.717-1.6-5.994-.493-11.98-1.042-17.969-1.566q-10.481-.918-20.963-1.833c-5.582-.479-11.164-.965-16.753-1.388-5.725-.433-11.459-.8-17.191-1.184-7.827-.518-15.675-.779-23.523-.975-5.111-.128-10.224-.084-15.34.067-5.252.156-10.486.412-15.7.9a112,112,0,0,0-26.307,5.278,72.105,72.105,0,0,0-23.885,13.535,81.506,81.506,0,0,0-14.4,16.62,196.926,196.926,0,0,0-11.483,20.37c-1.688,3.316-3.422,6.617-5.128,9.928a5.23,5.23,0,0,0-.66,1.514Z" transform="translate(-804.714 -264.695)" fill="#f2e0c5"/>
        <path id="Path_7216" data-name="Path 7216" d="M1650.994,264.7a11.068,11.068,0,0,1-1.529,2.267,194.481,194.481,0,0,1-16.556,20.049,103.745,103.745,0,0,1-13.228,11.7,73.7,73.7,0,0,1-24.3,11.929,74.987,74.987,0,0,1-14.548,2.489,122.511,122.511,0,0,1-26.563-1.425c-9.348-1.355-18.536-3.243-27.715-5.158-9.133-1.906-18.247-3.87-27.46-5.538-8.192-1.483-16.432-2.758-24.8-3.447a116.09,116.09,0,0,0-28.362.707,62.39,62.39,0,0,0-28.324,11.894,106.909,106.909,0,0,0-15.043,14.276c-6.231,7.013-11.74,14.38-17.37,21.687-4.64,6.024-9.265,12.055-14.365,17.853a106.438,106.438,0,0,1-16.969,15.934,59.472,59.472,0,0,1-15.53,8.3,55.318,55.318,0,0,1-26.927,2.3,112,112,0,0,1-20.387-5.241,263.282,263.282,0,0,1-31.907-13.923c-11.98-6.039-23.555-12.533-35.066-19.1-14.2-8.1-28.209-16.41-42.487-24.431-11.611-6.522-23.341-12.906-35.544-18.738a232.857,232.857,0,0,0-30.488-12.368,112.393,112.393,0,0,0-22.685-4.8,88.282,88.282,0,0,0-29.388,2.031,111.233,111.233,0,0,0-22.878,8.4c-8.361,4.054-16.1,8.782-23.827,13.515-6.937,4.248-13.775,8.6-20.991,12.563a8.713,8.713,0,0,1-1.971.952v1.285c2.71-1.265,5.2-2.781,7.718-4.257,7.526-4.412,14.819-9.06,22.272-13.546,9.095-5.474,18.424-10.672,28.856-14.524a91.812,91.812,0,0,1,24.22-5.526,90.525,90.525,0,0,1,26.461,1.779,149.176,149.176,0,0,1,24.26,7.57,346.934,346.934,0,0,1,33.224,15.585c12.324,6.471,24.311,13.311,36.256,20.2,10.769,6.207,21.495,12.461,32.323,18.6,13.344,7.571,26.864,14.945,41.085,21.5a208.875,208.875,0,0,0,24.819,9.764,99.325,99.325,0,0,0,17.877,3.987,55.773,55.773,0,0,0,31.743-5.157,70.952,70.952,0,0,0,16.309-11.19c7.61-6.8,13.86-14.347,19.869-22.026,6.243-7.977,12.23-16.076,18.728-23.931a132.783,132.783,0,0,1,13.05-13.881,61.734,61.734,0,0,1,35.5-16.659A107.21,107.21,0,0,1,1468,298.2c12.092.537,23.886,2.456,35.608,4.7,10.291,1.972,20.486,4.233,30.745,6.3,8.1,1.633,16.228,3.127,24.49,4.156a118.666,118.666,0,0,0,18.7.987,78.117,78.117,0,0,0,18.876-2.908,74.247,74.247,0,0,0,21.47-10.109,105.9,105.9,0,0,0,18.979-16.825,223.649,223.649,0,0,0,15.77-19.811Z" transform="translate(-993.78 -264.695)" fill="#f2e0c5"/>
        <path id="Path_7217" data-name="Path 7217" d="M951.535,585.944a58.861,58.861,0,0,1,6.059-8.865,60.781,60.781,0,0,1,10.047-10,69.6,69.6,0,0,1,15.326-9.107,110.2,110.2,0,0,1,26.918-7.351c7.4-1.171,14.864-1.9,22.375-2.416,6.78-.464,13.572-.71,20.374-.89,12.056-.319,24.112-.173,36.167-.095,7.488.049,14.974.236,22.46.413,7.394.175,14.792.259,22.185.448,5.982.154,11.963.124,17.945.187,2.374.025,4.749.127,7.121.1,7.487-.1,14.978-.1,22.46-.379,8.9-.334,17.776-.829,26.591-1.859a151.611,151.611,0,0,0,21.729-3.921,63.859,63.859,0,0,0,16.459-6.687,37.712,37.712,0,0,0,14.091-14.631,47.839,47.839,0,0,0,4.94-15.643,101.266,101.266,0,0,0,.738-19.457c-.2-5.312-.705-10.616-1.2-15.918-.458-4.91-.92-9.82-1.242-14.738a140.991,140.991,0,0,1-.447-14.229,64.878,64.878,0,0,1,2.738-18.032,39.884,39.884,0,0,1,11.38-17.14,76.893,76.893,0,0,1,18.321-11.97,201.505,201.505,0,0,1,27.348-10.575c10.065-3.214,20.325-6.021,30.528-8.949,8.618-2.473,17.211-5,25.531-8.047a119.619,119.619,0,0,0,16.667-7.38c10.937-6.031,18.622-13.99,23.19-23.809a58.668,58.668,0,0,0,4.9-17.632,94.352,94.352,0,0,0,.707-14.966q-.225-6.633-.932-13.25c-.622-5.868-1.391-11.723-2.234-17.573a8.213,8.213,0,0,1,.229-2.662,29.711,29.711,0,0,1,.833-4.224h-1.645a5.818,5.818,0,0,1-.257,2.55c-.721,2.739-.359,5.459.043,8.195q1.189,8.081,1.936,16.2a135.089,135.089,0,0,1,.717,15.934c-.195,7.473-.993,14.893-3.526,22.144a48.122,48.122,0,0,1-13.3,20.2,63.854,63.854,0,0,1-14.743,9.832,171.086,171.086,0,0,1-24.839,9.464c-9.247,2.888-18.645,5.457-27.991,8.136-9.735,2.791-19.414,5.693-28.792,9.164a138.332,138.332,0,0,0-21.617,9.864c-7.7,4.484-14.289,9.76-18.882,16.435a39.517,39.517,0,0,0-5.795,13.214,65.939,65.939,0,0,0-1.662,11.583,95.913,95.913,0,0,0-.158,9.738c.184,4.742.484,9.482.936,14.215s.794,9.47,1.241,14.2a159.439,159.439,0,0,1,.741,20.857c-.268,7.3-1.294,14.527-4.412,21.476a36.606,36.606,0,0,1-14.535,16.416,58.21,58.21,0,0,1-14.492,6.177,142.658,142.658,0,0,1-24.475,4.544c-7.555.828-15.154,1.277-22.773,1.6-15.657.658-31.32.438-46.981.305-7.213-.061-14.425-.266-21.637-.411-7.577-.153-15.156-.273-22.733-.437-12.055-.262-24.113-.266-36.166-.093-11.368.163-22.719.682-34.008,1.84a180.036,180.036,0,0,0-24.119,3.891,83.977,83.977,0,0,0-26.533,11.065,64.717,64.717,0,0,0-14.04,12.511,76,76,0,0,0-6.552,9.149,3.348,3.348,0,0,0-.618,1.3Z" transform="translate(-740.229 -264.695)" fill="#f2e0c5"/>
        <path id="Path_7218" data-name="Path 7218" d="M1521.161,264.7a1.635,1.635,0,0,1-.477.761,175.357,175.357,0,0,1-22.241,21.152,90.385,90.385,0,0,1-20.546,12.2,75.423,75.423,0,0,1-29.857,5.8A110.97,110.97,0,0,1,1428,302.473c-8.448-1.6-16.672-3.752-24.856-6.018-11.236-3.11-22.357-6.474-33.691-9.368-7.079-1.808-14.212-3.472-21.5-4.7a144.006,144.006,0,0,0-20.615-2.117,81.386,81.386,0,0,0-22.678,2.4,63.094,63.094,0,0,0-17.795,7.863,112.431,112.431,0,0,0-16.944,13.512c-7.245,6.815-13.747,14.068-20.428,21.214-5.47,5.851-10.932,11.706-16.939,17.233a103.98,103.98,0,0,1-19.19,14.454,60.1,60.1,0,0,1-16.938,6.631,55.687,55.687,0,0,1-21.555.325,87.65,87.65,0,0,1-15.833-4.43,187.756,187.756,0,0,1-25.616-12.159c-10.527-5.873-20.553-12.245-30.415-18.78-7.385-4.893-14.672-9.874-21.939-14.872-6-4.126-11.94-8.3-17.939-12.429-7.576-5.211-15.173-10.4-22.921-15.459-7.257-4.736-14.579-9.409-22.173-13.815-3.74-2.17-7.509-4.311-11.373-6.346-.484-.255-1.054-.449-1.294-.92H1002.9a3.932,3.932,0,0,0,1.359.88c9.81,5.119,19.13,10.747,28.278,16.557,7.089,4.5,14.027,9.144,20.91,13.834,6.573,4.479,13.076,9.022,19.619,13.528q8.479,5.839,16.977,11.661,9.615,6.615,19.487,12.993a354.065,354.065,0,0,0,33.163,19.3,151.537,151.537,0,0,0,20.244,8.517,71.913,71.913,0,0,0,18.207,3.754,56.221,56.221,0,0,0,24.526-3.865,75.323,75.323,0,0,0,15.921-8.836,150.629,150.629,0,0,0,21.571-19.339c6.906-7.239,13.653-14.57,20.549-21.814a147.907,147.907,0,0,1,18.6-16.837,66.937,66.937,0,0,1,19.191-10.323,70.462,70.462,0,0,1,19.424-3.359,129.5,129.5,0,0,1,27.039,2.108,314.683,314.683,0,0,1,31.209,7.321c10.5,2.915,20.912,6.024,31.478,8.795,7.105,1.863,14.3,3.488,21.635,4.7a97.568,97.568,0,0,0,20.562,1.274,74.527,74.527,0,0,0,22.038-4.408,87.189,87.189,0,0,0,20.449-10.833,149.317,149.317,0,0,0,22.538-20.091c1.386-1.462,2.742-2.943,4.1-4.42a3.814,3.814,0,0,0,.826-1.1Z" transform="translate(-869.155 -264.695)" fill="#f2e0c5"/>
        <path id="Path_7219" data-name="Path 7219" d="M950.441,681.378a5.236,5.236,0,0,1,1.813-.931,125.606,125.606,0,0,1,20.567-6.14c8.5-1.869,17.141-3.189,25.858-4.242q11.915-1.439,23.915-2.345c7.042-.534,14.09-1.017,21.152-1.378,7.561-.386,15.118-.825,22.68-1.206,5.284-.267,10.575-.462,15.86-.718,4.829-.235,9.656-.506,14.483-.766,4.235-.229,8.472-.451,12.7-.7q8.6-.512,17.187-1.19c5.724-.457,11.441-.958,17.135-1.591a257.957,257.957,0,0,0,35.438-5.978,96.252,96.252,0,0,0,16.158-5.53q16.337-7.456,21.524-21.676a47.913,47.913,0,0,0,2.673-13.722c.51-8.276-.582-16.468-2.088-24.63-1.551-8.4-3.327-16.783-4.931-25.181a137.521,137.521,0,0,1-2.453-18.944,54.4,54.4,0,0,1,1.372-16.192c1.709-6.753,5.506-12.745,10.981-18.109a81.376,81.376,0,0,1,17.353-12.526,187.3,187.3,0,0,1,19.144-9.167c10.308-4.322,20.974-8.068,31.557-11.948,10.336-3.79,20.675-7.579,30.413-12.273a89.76,89.76,0,0,0,16.1-9.576,50.575,50.575,0,0,0,12.227-13.338c.347-.562.508-1.243,1.319-1.577v-2.784c-.615.28-.734.8-.971,1.255a48.709,48.709,0,0,1-13.7,15.869,84.8,84.8,0,0,1-14.513,8.742c-7.983,3.921-16.413,7.182-24.907,10.35-11.829,4.413-23.835,8.536-35.46,13.281a180.663,180.663,0,0,0-25.446,12.371,72.793,72.793,0,0,0-16.369,13,37.71,37.71,0,0,0-9.473,18.291,59.514,59.514,0,0,0-.921,14.836c.5,8.935,2.24,17.75,4.013,26.562,1.469,7.3,3.062,14.58,4.185,21.916a115.6,115.6,0,0,1,1.3,12.8,61.926,61.926,0,0,1-.929,14.3,35.683,35.683,0,0,1-5.83,13.977c-3.831,5.451-9.3,9.671-16.1,12.858a97.1,97.1,0,0,1-17.918,6.106,246.068,246.068,0,0,1-29.669,5.125c-8.624,1.04-17.29,1.792-25.976,2.42-8.094.585-16.2,1.073-24.3,1.512-7.2.389-14.4.7-21.6,1.051-8.02.39-16.037.826-24.058,1.209q-11.281.538-22.535,1.346c-14.241,1-28.438,2.269-42.479,4.449a209.134,209.134,0,0,0-23.282,4.85,103.657,103.657,0,0,0-14.822,5.267,4.2,4.2,0,0,0-1.115.613Z" transform="translate(-665.41 -360.129)" fill="#f2e0c5"/>
        <path id="Path_7220" data-name="Path 7220" d="M956.744,703.443a9.3,9.3,0,0,1,2.392-.412c12.721-1.575,25.416-3.263,38.014-5.365,10.637-1.775,21.171-3.861,31.454-6.657a127.994,127.994,0,0,0,19.953-7.028,55.12,55.12,0,0,0,11.689-7.037,34.193,34.193,0,0,0,9.948-12.683,37.37,37.37,0,0,0,3.036-12.473c.623-7.9-.769-15.665-2.613-23.4s-4.425-15.314-6.837-22.935c-2.017-6.375-4.083-12.74-5.688-19.188a86.8,86.8,0,0,1-2.6-14.621c-.425-5.862-.268-11.7,1.814-17.417a43.356,43.356,0,0,1,11.085-16.346,104.786,104.786,0,0,1,20.672-14.926c9.737-5.588,20.1-10.4,30.544-15.114,10.557-4.769,21.21-9.413,31.361-14.709a118.931,118.931,0,0,0,17.283-10.671c1.336-1.022,2.566-2.13,3.843-3.2.338-.283.594-.647,1.161-.7v-1.713a2.146,2.146,0,0,0-.939.6,91.573,91.573,0,0,1-19.228,13.3c-8.934,4.858-18.367,9.082-27.778,13.335-10.359,4.681-20.76,9.308-30.678,14.557a141.838,141.838,0,0,0-21.21,13.339c-7.106,5.568-12.924,11.826-16.3,19.328a34.178,34.178,0,0,0-2.815,10.122c-.855,7.35.122,14.609,1.747,21.836,2.057,9.149,5.112,18.119,7.977,27.124a231.643,231.643,0,0,1,6.3,22.588,71.779,71.779,0,0,1,1.74,15.337,38.673,38.673,0,0,1-2.8,14.876c-3.184,7.58-9.186,13.475-17.533,17.972a104.146,104.146,0,0,1-19.763,7.806,275.71,275.71,0,0,1-29.57,6.744c-8.858,1.6-17.784,2.933-26.738,4.155-8.907,1.215-17.838,2.318-26.78,3.369-.4.048-.8.132-1.2.2Z" transform="translate(-488.089 -382.194)" fill="#f2e0c5"/>
        <path id="Path_7221" data-name="Path 7221" d="M951.263,719.127a5.684,5.684,0,0,1,1.579-.624,143.177,143.177,0,0,0,21.942-8.965c5.872-3.106,11.138-6.71,15.115-11.355a31.62,31.62,0,0,0,7.413-16.172c1.118-7.368-.052-14.6-2.039-21.783-2.3-8.319-5.723-16.381-9.247-24.42-3.6-8.2-7.369-16.362-10.489-24.689a88.055,88.055,0,0,1-4.988-18.084c-1.1-7.526-.405-14.889,3.212-22a49.118,49.118,0,0,1,7.581-10.76,94.375,94.375,0,0,1,14.314-12.506c9.115-6.637,19.132-12.37,29.276-17.981,8.537-4.721,17.186-9.32,25.577-14.2q6.761-3.933,13.125-8.254a2.444,2.444,0,0,1,1.365-.66v-1.5a11.236,11.236,0,0,0-2.75,1.744c-6.1,4.162-12.575,7.936-19.139,11.624-9.455,5.313-19.121,10.394-28.484,15.808-5.8,3.355-11.49,6.826-16.893,10.568-7.41,5.131-14.217,10.686-19.578,17.24-4.688,5.732-7.874,11.909-8.966,18.691a39.747,39.747,0,0,0,.048,12.175,94.712,94.712,0,0,0,6,20.86c3.529,8.937,7.626,17.724,11.433,26.588a168.538,168.538,0,0,1,6.939,18.6,59.254,59.254,0,0,1,2.829,17.376,33.314,33.314,0,0,1-2.991,14.082c-2.645,5.625-7,10.305-12.759,14.221-6.154,4.183-13.172,7.294-20.467,10.059-3.618,1.372-7.317,2.6-11.051,3.763a5.757,5.757,0,0,0-1.472.557Z" transform="translate(-379.832 -397.878)" fill="#f2e0c5"/>
        <path id="Path_7222" data-name="Path 7222" d="M1630.822,264.7a3.684,3.684,0,0,1-1.22.467,68.813,68.813,0,0,0-16.269,6.981,121.989,121.989,0,0,0-13.73,9.338c-6.955,5.375-13.379,11.127-19.781,16.9-8.226,7.413-16.366,14.886-25.41,21.716a110.084,110.084,0,0,1-17.219,10.892,65.188,65.188,0,0,1-16.053,5.642,54.947,54.947,0,0,1-26-.922,100.619,100.619,0,0,1-20.1-8.2,208.376,208.376,0,0,1-19.988-12.152c-11.784-7.974-22.753-16.61-33.63-25.318-5.932-4.749-11.756-9.58-17.612-14.386-4.124-3.385-8.22-6.791-12.328-10.189a2.449,2.449,0,0,1-.737-.763h-1.918c.95.82,1.878,1.656,2.853,2.457,6.358,5.223,12.749,10.421,19.085,15.66,9.475,7.835,19.121,15.54,29.053,23.02a268.511,268.511,0,0,0,30.948,20.6,108.783,108.783,0,0,0,22.4,9.819,58.862,58.862,0,0,0,18.5,2.513,59.978,59.978,0,0,0,19.109-3.836,85.476,85.476,0,0,0,17.617-9.183,186.252,186.252,0,0,0,19.591-15.246c6.394-5.586,12.6-11.3,18.947-16.916,5.139-4.548,10.374-9.031,16.014-13.208a97.517,97.517,0,0,1,18.4-11.081,61.37,61.37,0,0,1,12.741-4.139,6.966,6.966,0,0,0,1.674-.458Z" transform="translate(-1202.454 -264.695)" fill="#f2e0c5"/>
        <path id="Path_7223" data-name="Path 7223" d="M962.713,734.014a3.954,3.954,0,0,1,1.423-.981,71.864,71.864,0,0,0,10.307-7.027q10.963-9.029,12.416-21.415a42.941,42.941,0,0,0-1.829-17.2,115.106,115.106,0,0,0-10.118-23.057c-4.589-8.323-9.362-16.585-13.973-24.9a128.377,128.377,0,0,1-8.754-18.8,48.664,48.664,0,0,1-3.157-15.282,34.757,34.757,0,0,1,5.248-18.66A73.277,73.277,0,0,1,968.7,569.837a205.59,205.59,0,0,1,21.818-16.677c6.948-4.742,14.063-9.328,21.123-13.967,2.376-1.561,4.7-3.17,7.053-4.754a9.429,9.429,0,0,1,1.848-1.1v-1.285a5.21,5.21,0,0,0-1.886,1.036c-6.39,4.426-13,8.65-19.518,12.956-5.718,3.776-11.405,7.58-16.9,11.554a171.123,171.123,0,0,0-14.917,11.94c-5.979,5.437-11.251,11.236-14.895,17.865a35.247,35.247,0,0,0-4.7,18.539,50.02,50.02,0,0,0,3.13,14.747,125.119,125.119,0,0,0,8.718,18.8c4.521,8.15,9.178,16.255,13.683,24.41a126.316,126.316,0,0,1,9.766,21.345,47.5,47.5,0,0,1,2.74,16.608c-.331,9.172-4.442,17.1-12.6,23.737a75.383,75.383,0,0,1-11.508,7.568c-.485.265-.937.565-1.405.848Z" transform="translate(-335.372 -412.765)" fill="#f2e0c5"/>
        <path id="Path_7224" data-name="Path 7224" d="M1630.541,264.7a2.452,2.452,0,0,1-.863.818c-8.634,6.109-16.806,12.594-25.266,18.845a217.055,217.055,0,0,1-21.948,14.67,99.46,99.46,0,0,1-16.707,7.727,61.118,61.118,0,0,1-19.214,3.507,54.283,54.283,0,0,1-18.5-2.994,93.443,93.443,0,0,1-19.1-9.351c-4.465-2.783-8.69-5.776-12.8-8.878-7.3-5.509-14.13-11.354-20.785-17.331-2.218-1.992-4.4-4.01-6.585-6.021-.321-.294-.717-.562-.758-.991H1466.1c1.618,1.73,3.463,3.316,5.243,4.94,7.365,6.72,14.885,13.333,23.016,19.5a145.687,145.687,0,0,0,23.247,14.909,69.1,69.1,0,0,0,17.642,6.228,57.106,57.106,0,0,0,23.928-.557,80.86,80.86,0,0,0,17.908-6.581,145.776,145.776,0,0,0,16.912-10c7.261-4.9,14.121-10.128,21.006-15.34,5.507-4.169,11-8.353,16.719-12.346a1.8,1.8,0,0,0,.737-.754Z" transform="translate(-1243.283 -264.695)" fill="#f2e0c5"/>
        <path id="Path_7225" data-name="Path 7225" d="M1198.182,264.7c-.087.417-.482.679-.81.971q-6.191,5.517-12.99,10.579a112.426,112.426,0,0,1-20.462,12.321,77.37,77.37,0,0,1-40.736,6.859,127.424,127.424,0,0,1-22.965-4.825c-8.092-2.364-15.932-5.182-23.772-8-9.872-3.552-19.656-7.254-29.688-10.528a226.086,226.086,0,0,0-25.728-6.987,3.873,3.873,0,0,1-1.266-.386h-6.3c.569.129,1.129.289,1.708.38a174.751,174.751,0,0,1,23.318,5.493c10.786,3.25,21.261,7.06,31.726,10.887,9.926,3.629,19.845,7.274,30.123,10.274a131.088,131.088,0,0,0,20.822,4.51,78.61,78.61,0,0,0,34.61-3.346,96.347,96.347,0,0,0,22.224-10.855,173.1,173.1,0,0,0,21.515-16.754c.209-.188.4-.392.594-.588Z" transform="translate(-552.479 -264.695)" fill="#f2e0c5"/>
        <path id="Path_7226" data-name="Path 7226" d="M1158.385,264.7a2.429,2.429,0,0,1-.948.9,135.75,135.75,0,0,1-27.221,15.223,83.1,83.1,0,0,1-23.776,5.874,79.14,79.14,0,0,1-24.143-1.583,145.517,145.517,0,0,1-22.656-7.251c-8.229-3.265-16.2-6.893-24.194-10.493-1.425-.642-2.853-1.277-4.275-1.923a4.392,4.392,0,0,1-1.325-.745h-2.467a2.539,2.539,0,0,0,1.054.663c11.042,4.968,21.953,10.121,33.408,14.505a129.779,129.779,0,0,0,21.959,6.587,81.461,81.461,0,0,0,17.232,1.555,79.7,79.7,0,0,0,17.889-2.425,104.615,104.615,0,0,0,25.833-10.636c5.078-2.866,9.87-6.008,14.551-9.256.407-.282.857-.544,1-.994Z" transform="translate(-520.629 -264.695)" fill="#f2e0c5"/>
        <path id="Path_7227" data-name="Path 7227" d="M1624.561,264.7a8.134,8.134,0,0,1-1.9,1.215,165.84,165.84,0,0,1-18.621,9.586,89.5,89.5,0,0,1-18.718,5.942,55.017,55.017,0,0,1-32.952-3.5,85,85,0,0,1-15.083-8.659c-1.693-1.2-3.354-2.417-4.956-3.688a3.566,3.566,0,0,1-.956-.9h-1.918a91.84,91.84,0,0,0,7.535,5.756,89.346,89.346,0,0,0,13.015,7.63,56.373,56.373,0,0,0,20.6,5.364,60.658,60.658,0,0,0,15.476-1.1,97.156,97.156,0,0,0,23.428-8.143c5.382-2.567,10.518-5.417,15.538-8.394.532-.315,1.2-.544,1.429-1.108Z" transform="translate(-1273.481 -264.695)" fill="#f2e0c5"/>
        <path id="Path_7228" data-name="Path 7228" d="M1141.612,264.7a20.64,20.64,0,0,1-3.36,1.836,120.276,120.276,0,0,1-23.562,9.02,79.048,79.048,0,0,1-46.25-1.708,158.026,158.026,0,0,1-19.828-8.444,2.261,2.261,0,0,1-1.006-.7h-2.467a2.507,2.507,0,0,0,.819.559,163.587,163.587,0,0,0,22.381,9.661,83.426,83.426,0,0,0,20.2,4.094,81.375,81.375,0,0,0,25.4-2.218,115.924,115.924,0,0,0,23.8-8.826c1.625-.794,3.227-1.618,4.83-2.437a3.3,3.3,0,0,0,1.23-.832Z" transform="translate(-514.271 -264.695)" fill="#f2e0c5"/>
        <path id="Path_7229" data-name="Path 7229" d="M2124.022,264.7a4.091,4.091,0,0,1-1.066.658q-11.05,5.616-22.1,11.226a17.549,17.549,0,0,1-2.591,1.18v1.285c9.13-4.4,17.966-9.162,27.034-13.64.421-.208.8-.472,1.2-.709Z" transform="translate(-2098.26 -264.695)" fill="#f2e0c5"/>
      </g>
    </g>
    <g id="Group_1248" data-name="Group 1248" transform="translate(-865.941 -76.211)">
      <g id="Layer_2" data-name="Layer 2" transform="translate(1000.368 1525.298) rotate(-120)">
        <g id="Layer_1" data-name="Layer 1" transform="translate(0 0)">
          <path id="Rectangle_1803" data-name="Rectangle 1803" d="M12.268,54.558A12.268,12.268,0,0,0,24.536,42.29V12.268A12.268,12.268,0,0,0,3.593,3.593,12.188,12.188,0,0,0,0,12.268V42.29A12.268,12.268,0,0,0,12.268,54.558Zm0-53.577A11.287,11.287,0,0,1,23.555,12.268V42.29A11.287,11.287,0,0,1,4.287,50.271,11.213,11.213,0,0,1,.981,42.29V12.268A11.287,11.287,0,0,1,12.268.981Z" transform="matrix(0.79, -0.614, 0.614, 0.79, 0, 15.057)" fill="#123456"/>
          <path id="Path_6121" data-name="Path 6121" d="M.49,0A.49.49,0,0,0,.1.793,9.338,9.338,0,0,0,6.341,4.33a9.338,9.338,0,0,0,6.917-1.892l-.6-.776A8.363,8.363,0,0,1,6.463,3.357,8.363,8.363,0,0,1,.877.188.49.49,0,0,0,.49,0Z" transform="translate(28.072 45.786)" fill="#123456"/>
          <path id="Path_6122" data-name="Path 6122" d="M3.908,0a.488.488,0,0,0-.3.1A9.387,9.387,0,0,0,1.96,13.238L16.292,31.67a.49.49,0,0,0,.774-.6L2.736,12.637A8.406,8.406,0,0,1,4.21.877.49.49,0,0,0,3.908,0Z" transform="translate(7.959 9.855)" fill="#123456"/>
          <path id="Path_6123" data-name="Path 6123" d="M2.39,0a9.382,9.382,0,0,0-2,.217.49.49,0,1,0,.21.958A8.4,8.4,0,0,1,9.01,4.215L25.038,24.882a.49.49,0,0,0,.775-.6L9.785,3.613A9.38,9.38,0,0,0,2.39,0Z" transform="translate(14.957 7.992)" fill="#123456"/>
          <path id="Path_6124" data-name="Path 6124" d="M.49,0A.49.49,0,0,0,.1.79,8.373,8.373,0,0,1,1.841,5.436,8.373,8.373,0,0,1,.658,10.253a.49.49,0,1,0,.841.5A9.35,9.35,0,0,0,2.821,5.378,9.35,9.35,0,0,0,.879.191.49.49,0,0,0,.49,0Z" transform="translate(42.079 34.898)" fill="#123456"/>
          <path id="Path_6125" data-name="Path 6125" d="M5.837,0A5.843,5.843,0,0,0,2.272,1.212a5.843,5.843,0,0,0-1.03,8.215.49.49,0,1,0,.773-.6,4.862,4.862,0,0,1,.854-6.833,4.916,4.916,0,0,1,6.857.892L15.073,9.75a.49.49,0,0,0,.774-.6L10.5,2.281A5.848,5.848,0,0,0,6.608.05,5.975,5.975,0,0,0,5.837,0Z" transform="translate(11.219 11.187)" fill="#123456"/>
          <path id="Path_6126" data-name="Path 6126" d="M.49,0A.49.49,0,0,0,.1.792L10.246,13.809a4.9,4.9,0,0,1-.894,6.853.49.49,0,0,0,.6.777,5.885,5.885,0,0,0,1.07-8.23L.877.189A.49.49,0,0,0,.49,0Z" transform="translate(29.416 24.304)" fill="#123456"/>
          <path id="Path_6127" data-name="Path 6127" d="M.49,0A.49.49,0,0,0,.1.792L15.8,20.93a5.9,5.9,0,0,0,6.026,2.078.49.49,0,0,0-.233-.953,4.915,4.915,0,0,1-5.02-1.73L.877.189A.49.49,0,0,0,.49,0Z" transform="translate(15.398 23.784)" fill="#123456"/>
          <path id="Path_6128" data-name="Path 6128" d="M.49,0A.49.49,0,0,0,.1.791l6.68,8.6A2.692,2.692,0,0,0,11.03,6.085a.49.49,0,0,0-.775.6,1.711,1.711,0,1,1-2.7,2.1L.878.19A.49.49,0,0,0,.49,0Z" transform="translate(26.345 32.691)" fill="#123456"/>
          <path id="Path_6129" data-name="Path 6129" d="M2.675,0A2.69,2.69,0,0,0,1.036.553l0,0A2.7,2.7,0,0,0,.564,4.333L9.588,15.947a.49.49,0,0,0,.775-.6L1.339,3.731a1.72,1.72,0,0,1,.3-2.4,1.733,1.733,0,0,1,2.4.307.49.49,0,0,0,.772-.606A2.709,2.709,0,0,0,2.675,0Z" transform="translate(14.938 15.063)" fill="#123456"/>
          <path id="Line_110" data-name="Line 110" d="M.49,0A.49.49,0,0,0,.1.792L14.768,19.654a.49.49,0,0,0,.774-.6L.878.189A.49.49,0,0,0,.49,0Z" transform="translate(20.283 17.732)" fill="#123456"/>
        </g>
      </g>
      <g id="Group_1223" data-name="Group 1223" transform="translate(1036.918 1488.037)">
        <rect id="Rectangle_839" data-name="Rectangle 839" width="16.254" height="40.787" rx="8.127" transform="translate(0 10.229) rotate(-39)" fill="#c0cfe8"/>
        <path id="Subtraction_2" data-name="Subtraction 2" d="M12.4,20.368A8.1,8.1,0,0,1,6.08,17.356L0,9.848,12.941,0l5.77,7.126A8.127,8.127,0,0,1,12.4,20.368Z" transform="translate(14.475 18.255)" fill="#a1b7dd"/>
      </g>
      <g id="Group_1222" data-name="Group 1222" transform="translate(1075.218 1462)">
        <rect id="Rectangle_842" data-name="Rectangle 842" width="16.254" height="40.787" rx="8.127" transform="translate(10.229 38.3) rotate(-129)" fill="#f5e0c2"/>
        <path id="Subtraction_3" data-name="Subtraction 3" d="M12.4,20.369A8.1,8.1,0,0,1,6.08,17.356L0,9.848,12.94,0l5.771,7.127A8.127,8.127,0,0,1,12.4,20.369Z" transform="translate(18.253 23.826) rotate(-90)" fill="#eac086"/>
      </g>
    </g>
  </g>
</svg>
